<svg width="16" height="13" viewBox="0 0 16 13" fill="none" xmlns="http://www.w3.org/2000/svg">
<path fill-rule="evenodd" clip-rule="evenodd" d="M2.14878 6.09091C2.19543 6.16764 2.24833 6.25242 2.30737 6.34384C2.59225 6.78495 3.01362 7.3706 3.55908 7.95242C4.66825 9.13553 6.17224 10.1818 8 10.1818C9.82776 10.1818 11.3318 9.13553 12.4409 7.95242C12.9864 7.3706 13.4077 6.78495 13.6926 6.34384C13.7517 6.25242 13.8046 6.16764 13.8512 6.09091C13.8046 6.01417 13.7517 5.9294 13.6926 5.83798C13.4077 5.39687 12.9864 4.81122 12.4409 4.2294C11.3318 3.04629 9.82776 2 8 2C6.17224 2 4.66825 3.04629 3.55908 4.2294C3.01362 4.81122 2.59225 5.39687 2.30737 5.83798C2.24833 5.9294 2.19543 6.01417 2.14878 6.09091ZM15 6.09091C15.8944 5.6437 15.8943 5.64337 15.8941 5.64302L15.8927 5.64031L15.8901 5.63506L15.8819 5.61908C15.8752 5.60603 15.866 5.58824 15.8542 5.56602C15.8307 5.52159 15.7971 5.45937 15.7535 5.3819C15.6664 5.2271 15.5391 5.01061 15.3727 4.75293C15.0411 4.23949 14.5477 3.55241 13.9 2.86151C12.6228 1.49917 10.6268 0 8 0C5.37322 0 3.37721 1.49917 2.10001 2.86151C1.45229 3.55241 0.958883 4.23949 0.62729 4.75293C0.460873 5.01061 0.333576 5.2271 0.2465 5.3819C0.202924 5.45937 0.169309 5.52159 0.145797 5.56602C0.134037 5.58824 0.124795 5.60603 0.118088 5.61908L0.109926 5.63506L0.107273 5.64031L0.106304 5.64224C0.106131 5.64258 0.105573 5.6437 1 6.09091L0.105573 5.6437C-0.0351909 5.92522 -0.0351909 6.2566 0.105573 6.53812L1 6.09091C0.105573 6.53812 0.1054 6.53778 0.105573 6.53812L0.106304 6.53958L0.107273 6.54151L0.109926 6.54676L0.118088 6.56274C0.124795 6.57579 0.134037 6.59358 0.145797 6.6158C0.169309 6.66023 0.202924 6.72245 0.2465 6.79992C0.333576 6.95472 0.460873 7.17121 0.62729 7.42889C0.958883 7.94232 1.45229 8.6294 2.10001 9.3203C3.37721 10.6827 5.37322 12.1818 8 12.1818C10.6268 12.1818 12.6228 10.6827 13.9 9.3203C14.5477 8.6294 15.0411 7.94232 15.3727 7.42889C15.5391 7.17121 15.6664 6.95472 15.7535 6.79992C15.7971 6.72245 15.8307 6.66023 15.8542 6.6158C15.866 6.59358 15.8752 6.57579 15.8819 6.56274L15.8901 6.54676L15.8927 6.54151L15.8937 6.53958C15.8939 6.53924 15.8944 6.53812 15 6.09091ZM15 6.09091L15.8944 6.53812C16.0352 6.2566 16.0349 5.92455 15.8941 5.64302L15 6.09091Z" fill="#666666"/>
<path fill-rule="evenodd" clip-rule="evenodd" d="M7.99985 5.18176C7.49777 5.18176 7.09076 5.58878 7.09076 6.09085C7.09076 6.59293 7.49777 6.99994 7.99985 6.99994C8.50193 6.99994 8.90894 6.59293 8.90894 6.09085C8.90894 5.58878 8.50193 5.18176 7.99985 5.18176ZM5.09076 6.09085C5.09076 4.48421 6.3932 3.18176 7.99985 3.18176C9.6065 3.18176 10.9089 4.48421 10.9089 6.09085C10.9089 7.6975 9.6065 8.99994 7.99985 8.99994C6.3932 8.99994 5.09076 7.6975 5.09076 6.09085Z" fill="#666666"/>
</svg>
